PathFileType	4	(X/Y/Z)	Kaydara	
DataRate	CameraRate	NumFrames	NumMarkers	Units	OrigDataRate	OrigDataStartFrame	OrigNumFrames	
60.00	60.00	4	74	mm	60.00	824	204	
Frame#	Time	Z_lasi			Z_rasi			Z_rpsi			Z_lpsi			Z_fneck			Z_bneck			Z_fhead			Z_rhead			Z_lhead			Z_rshld			Z_relbtop			Z_relbext			Z_relblow			Z_rwrext			Z_rwrtop			Z_rwrlow			Z_lshld			Z_lelbext			Z_lelblow			Z_lelbtop			Z_lwrext			Z_lwrtop			Z_lwrlow			Z_rtopleg			Z_ltopleg			Z_rkneefr			Z_rkneebk			Z_rkneeis			Z_lkneefr			Z_lknssbk			Z_lkneeis			Z_rankfr			Z_rankis			Z_rankbk			Z_lankfr			Z_lankbk			Z_lankis			N_lasi			N_rasi			N_rpsi			N_lpsi			N_fneck			N_bneck			N_fhead			N_rhead			N_lhead			N_rshld			N_relbtop			N_relbext			N_relblow			N_rwrext			N_rwrtop			N_rwrlow			N_lshld			N_lelbext			N_lelblow			N_lelbtop			N_lwrext			N_lwrtop			N_lwrlow			N_rtopleg			N_ltopleg			N_rkneefr			N_rkneebk			N_rkneeis			N_lkneefr			N_lknssbk			N_lkneeis			N_rankfr			N_rankis			N_rankbk			N_lankfr			N_lankbk			N_lankis			
		X1	Y1	Z1	X2	Y2	Z2	X3	Y3	Z3	X4	Y4	Z4	X5	Y5	Z5	X6	Y6	Z6	X7	Y7	Z7	X8	Y8	Z8	X9	Y9	Z9	X10	Y10	Z10	X11	Y11	Z11	X12	Y12	Z12	X13	Y13	Z13	X14	Y14	Z14	X15	Y15	Z15	X16	Y16	Z16	X17	Y17	Z17	X18	Y18	Z18	X19	Y19	Z19	X20	Y20	Z20	X21	Y21	Z21	X22	Y22	Z22	X23	Y23	Z23	X24	Y24	Z24	X25	Y25	Z25	X26	Y26	Z26	X27	Y27	Z27	X28	Y28	Z28	X29	Y29	Z29	X30	Y30	Z30	X31	Y31	Z31	X32	Y32	Z32	X33	Y33	Z33	X34	Y34	Z34	X35	Y35	Z35	X36	Y36	Z36	X37	Y37	Z37	X38	Y38	Z38	X39	Y39	Z39	X40	Y40	Z40	X41	Y41	Z41	X42	Y42	Z42	X43	Y43	Z43	X44	Y44	Z44	X45	Y45	Z45	X46	Y46	Z46	X47	Y47	Z47	X48	Y48	Z48	X49	Y49	Z49	X50	Y50	Z50	X51	Y51	Z51	X52	Y52	Z52	X53	Y53	Z53	X54	Y54	Z54	X55	Y55	Z55	X56	Y56	Z56	X57	Y57	Z57	X58	Y58	Z58	X59	Y59	Z59	X60	Y60	Z60	X61	Y61	Z61	X62	Y62	Z62	X63	Y63	Z63	X64	Y64	Z64	X65	Y65	Z65	X66	Y66	Z66	X67	Y67	Z67	X68	Y68	Z68	X69	Y69	Z69	X70	Y70	Z70	X71	Y71	Z71	X72	Y72	Z72	X73	Y73	Z73	X74	Y74	Z74	

128	13.717	-519.18213	963.38516	818.83263	-444.77699	968.35617	1048.83644	-641.23627	1020.36705	1082.95296	-696.63818	1012.74323	895.19615	-478.83255	1417.25143	886.46698	-550.39146	1492.23999	946.89789	-383.10471	1543.13004	801.86180	-431.27308	1600.02258	977.35161	-532.82673	1604.53827	895.48889	-485.69077	1356.33545	1162.05978	-530.43507	1060.34248	1219.33212	-534.47792	1048.21243	1149.48853	-450.64434	1078.52844	1201.04950	-444.58118	810.53062	1210.62248	-399.90860	819.83131	1211.56776	-397.41375	831.29631	1165.55107	-616.61797	1376.55807	745.59502	-637.06200	1049.04877	779.15047	-613.96278	1075.87448	691.69907	-684.05510	1045.25627	722.48627	-586.69701	846.89827	671.05774	-548.74073	862.28928	659.56474	-531.29200	862.51984	702.70912	-505.51804	865.40588	1133.47725	-621.70517	881.43234	796.88316	-364.10938	414.34464	1049.57390	-412.86400	434.16550	1123.96927	-458.50857	415.36373	1019.29886	-620.12913	384.90459	861.63185	-683.44009	434.18770	817.94861	-674.05121	441.43757	944.54414	-357.23675	154.69906	1072.51289	-435.80841	139.91967	1055.22209	-413.41404	137.96436	1123.80310	-865.69260	225.91257	893.87665	-887.46246	259.00339	947.46017	-824.51904	218.49154	961.67999	-292.31064	985.82886	-846.68495	-245.58565	988.11340	-1071.19614	-11.81908	1071.62727	-1002.80716	-91.79678	1050.02579	-775.54665	-328.14766	1460.63293	-948.87161	-198.02315	1530.77530	-925.54680	-403.34801	1691.69144	-957.82928	-252.12034	1643.85132	-1039.17068	-250.49547	1673.84720	-883.65486	-178.23002	1442.61047	-1139.79027	-30.53285	1169.68636	-1198.74855	-36.03504	1151.96800	-1114.74251	-102.03184	1156.33324	-1181.58287	-77.93158	916.50085	-1230.47081	-126.26213	924.70016	-1249.56230	-152.92943	927.59796	-1212.49985	-268.85458	1435.36896	-704.84390	-242.78959	1126.90094	-628.45150	-197.97195	1148.16818	-630.37651	-167.98162	1194.19380	-573.58150	-127.59361	954.91669	-482.93709	-178.46260	954.80484	-464.84295	-198.03179	934.70772	-505.48004	-34.70018	881.05560	-1111.92215	-239.38324	869.86320	-752.42760	-2.07477	441.64276	-1012.12128	85.51170	519.58881	-988.14278	11.69986	483.04726	-904.96864	-406.20289	498.44803	-977.71332	-341.45382	484.49287	-887.87750	-296.38044	488.83259	-1006.26656	161.14742	187.25204	-939.58054	172.68803	211.53849	-871.05621	223.29355	212.69230	-936.41792	-466.80702	182.78372	-993.19977	-385.49011	173.13690	-1042.91145	-451.46061	206.41094	-1059.48547 
129	13.733	-503.21232	964.59579	820.84267	-423.32420	970.86159	1051.59264	-621.70959	1024.66896	1083.15918	-679.02031	1014.12262	896.88744	-461.22036	1418.22861	887.68234	-532.50565	1493.27057	948.01109	-367.25594	1543.71368	800.78300	-413.78807	1601.77979	976.30859	-516.96960	1605.01709	894.80194	-465.85888	1358.56094	1163.30490	-507.73678	1062.03247	1219.86961	-513.32150	1050.53429	1150.33539	-428.09498	1079.85565	1199.81560	-424.45133	811.57341	1209.37904	-379.58851	820.29541	1209.46411	-377.85122	831.80199	1163.32993	-601.90571	1378.13919	748.44696	-622.56332	1050.91599	783.14690	-602.35474	1077.36603	695.88043	-671.95053	1048.16643	728.33458	-582.04094	847.62215	672.63222	-543.86299	862.18536	659.95056	-525.26817	861.45996	702.65213	-486.72955	867.31628	1133.78830	-604.56516	879.77287	798.77403	-345.39810	415.36503	1051.85478	-392.53628	437.15664	1125.41298	-440.09575	419.61132	1020.57152	-582.12894	383.15746	849.45839	-645.60928	434.32846	807.99553	-632.71481	438.32394	935.68832	-351.34258	153.74120	1072.59888	-430.89081	142.70624	1055.58022	-408.56430	140.00127	1125.19547	-835.51125	235.06046	888.81989	-854.30824	269.16958	943.27621	-792.95723	225.73536	955.81764	-313.93038	987.71286	-852.93457	-267.94952	988.68324	-1077.09465	-34.53086	1072.28317	-1009.73701	-113.64693	1051.21361	-781.46324	-350.02205	1460.95459	-952.77939	-219.94493	1531.27701	-929.42810	-426.03897	1692.06070	-960.34225	-275.38227	1644.72900	-1042.99538	-272.89339	1674.31427	-887.90039	-199.84861	1443.69339	-1143.77434	-52.63976	1170.24658	-1202.02393	-57.90417	1152.29439	-1118.60146	-124.17396	1157.02156	-1185.71594	-100.18401	917.35809	-1235.48676	-148.54725	925.68932	-1254.69429	-174.81617	928.18878	-1216.77208	-290.90403	1433.28568	-708.81042	-264.10686	1121.32935	-638.82454	-219.25304	1143.01453	-641.22093	-189.33502	1188.20442	-583.48320	-140.61843	948.53966	-498.76503	-191.36288	946.16638	-479.71989	-211.26677	926.41960	-520.49129	-57.01242	881.09634	-1118.44460	-262.81679	871.94107	-759.16557	-21.21497	440.98560	-1021.32271	63.99781	521.57745	-996.77147	-9.78515	483.81489	-913.97476	-426.13304	499.72687	-987.73079	-362.48478	486.07685	-895.50247	-314.49226	488.81947	-1012.57439	152.14628	193.54376	-946.76620	161.69434	219.47037	-878.11424	213.22386	221.36381	-943.31322	-482.83382	181.72150	-1002.55150	-398.57193	172.77479	-1047.10808	-463.18779	203.77235	-1067.07626 
130	13.750	-488.85891	965.31227	822.87704	-403.41194	973.28476	1050.60852	-602.90363	1026.54930	1084.57802	-662.48955	1015.83298	900.15411	-444.02382	1419.20792	887.28264	-514.80347	1494.29016	948.34877	-351.33797	1545.08865	799.93782	-396.84544	1603.59634	975.03754	-500.58487	1605.47134	894.35440	-445.22961	1360.77911	1163.04092	-484.93507	1064.11438	1220.37071	-492.70317	1052.89955	1150.70969	-405.74177	1081.48865	1198.04482	-403.61214	813.30009	1207.85316	-358.82309	821.57784	1207.18971	-357.95471	832.97592	1161.18362	-587.46742	1380.29388	750.13824	-607.31548	1053.20145	786.23085	-591.27319	1079.42284	699.02817	-660.28687	1051.32408	734.10950	-577.49390	849.12857	674.43451	-539.52110	862.66922	660.25352	-519.53087	861.12610	702.57729	-466.48903	869.34250	1133.70743	-588.69789	879.79149	801.25687	-330.34096	414.93248	1052.32651	-375.96107	437.77000	1126.36154	-424.29138	420.94521	1019.50027	-545.01354	383.30341	836.77254	-608.86604	436.56891	797.92030	-590.25963	436.87370	926.40755	-345.93224	152.54515	1072.07825	-425.75920	144.14246	1054.28871	-404.10324	141.01748	1123.98964	-803.85025	245.37169	883.82973	-819.15756	279.66496	938.61320	-760.09590	234.11737	949.83086	-335.88070	990.56015	-857.20070	-291.74505	989.83406	-1082.68234	-58.34036	1073.88962	-1016.74301	-135.09127	1053.88405	-787.43805	-372.20188	1462.43683	-956.67686	-242.17216	1532.93900	-933.29903	-448.80985	1693.10898	-962.95471	-298.61874	1646.36978	-1046.75888	-294.96994	1675.79453	-891.43715	-221.96512	1445.50095	-1147.52113	-74.93403	1171.84067	-1205.62439	-80.03807	1153.64235	-1122.78404	-146.65830	1158.71933	-1190.17105	-122.73825	919.17915	-1240.73769	-171.03733	927.69608	-1259.77783	-195.83069	929.09248	-1220.15198	-313.49766	1432.08450	-712.78061	-287.10398	1116.47743	-649.79424	-242.36124	1138.74527	-652.77527	-212.22111	1182.76993	-593.86822	-155.46041	942.59911	-515.51514	-205.60139	938.16231	-495.82237	-225.28564	918.74702	-536.83250	-80.13946	881.84944	-1124.65355	-285.81091	875.07118	-765.29350	-43.23780	440.22144	-1033.06259	39.23958	523.28606	-1006.80824	-34.33364	484.38896	-924.95407	-448.47889	502.90520	-997.37434	-386.45454	489.69124	-901.68488	-334.71786	490.26520	-1017.68600	140.50227	200.43011	-956.40732	148.84066	228.19511	-888.09151	200.21980	231.17651	-951.91704	-496.60305	180.71447	-1009.99619	-410.07229	172.37133	-1048.83873	-473.15670	201.94223	-1073.50182 
131	13.767	-475.29953	966.41106	821.84586	-386.86054	975.30067	1044.02748	-583.82046	1026.75056	1087.80205	-647.00226	1017.40288	905.24963	-427.30289	1420.49316	886.22398	-497.29198	1496.00357	947.87453	-335.65201	1546.92123	797.88284	-380.17647	1605.57220	973.07129	-484.59988	1606.53061	893.25500	-422.86617	1362.85065	1161.81732	-462.27940	1066.24443	1220.34531	-469.77375	1054.14726	1151.01288	-383.62305	1083.40332	1195.85426	-382.43561	815.13916	1206.00693	-337.66121	823.01979	1204.60808	-337.36042	834.56070	1158.33138	-573.27293	1382.44125	751.20781	-593.21598	1055.63217	789.25552	-581.15089	1081.44104	701.45760	-648.87779	1054.26788	739.37675	-572.77683	850.61050	676.57341	-535.28370	863.39218	660.80231	-513.44944	861.51024	701.40541	-445.64869	870.91690	1133.98125	-572.34760	881.47545	803.59596	-317.42809	412.68635	1051.40511	-364.91177	436.47354	1123.34396	-410.78278	421.03096	1016.76361	-510.33092	386.38691	823.86963	-574.68231	441.79443	788.52425	-549.56833	438.60889	916.95908	-341.20670	151.38931	1070.87509	-420.92972	145.30233	1052.47086	-399.67697	141.30689	1121.80092	-771.55731	256.64618	878.85506	-783.31398	290.61115	934.75670	-728.05946	241.61087	944.08531	-357.07512	993.72696	-861.13831	-316.33331	991.38191	-1086.93504	-82.74190	1076.21071	-1023.33214	-157.29047	1055.77896	-794.07745	-394.43089	1464.84344	-960.28801	-264.44859	1535.52567	-936.88362	-471.42841	1694.70306	-965.47508	-321.59702	1648.59177	-1050.31181	-317.12055	1677.89139	-895.04860	-244.48210	1448.02460	-1151.54800	-97.41742	1174.29291	-1209.81789	-102.35742	1155.83839	-1127.31598	-169.32438	1161.25504	-1194.73122	-145.66345	921.60225	-1245.98366	-193.90966	930.34386	-1264.83391	-218.67531	931.55060	-1225.27428	-336.66256	1431.78497	-716.65474	-311.29959	1112.31804	-661.26160	-266.81068	1135.30128	-664.99489	-236.16287	1177.89497	-604.58332	-171.86129	937.66563	-533.39912	-221.49239	930.88844	-513.16582	-241.07430	911.89186	-554.28413	-104.30876	882.79190	-1130.48691	-307.43090	877.76466	-770.62279	-68.71182	439.09077	-1047.83165	11.51134	524.43432	-1019.43626	-62.19532	484.60464	-938.69560	-470.95810	505.46421	-1005.69809	-412.52983	493.96519	-908.72162	-356.60080	493.19275	-1022.51404	125.30510	207.84996	-968.96751	131.19373	235.97162	-900.52925	183.36714	241.44979	-962.57996	-508.78357	179.79107	-1015.51582	-420.18486	172.27242	-1048.55209	-482.19223	200.20731	-1078.21411 
